            <svg xmlns="http://www.w3.org/2000/svg" width="980" height="520" viewBox="0 0 980 520">
              <rect width="100%" height="100%" fill="#ffffff"/>
              <text x="32" y="42" font-family="Arial" font-size="24" font-weight="700" fill="#18202a">Customer Tenure Distribution</text>
<line x1="80" y1="442" x2="935" y2="442" stroke="#98a2b3" stroke-width="1"/>
<line x1="80" y1="78" x2="80" y2="442" stroke="#98a2b3" stroke-width="1"/>
<text x="490.0" y="496" text-anchor="middle" font-family="Arial" font-size="14" fill="#344054">Tenure years</text>
<text x="22" y="63" font-family="Arial" font-size="13" fill="#667085">Count</text>
<rect x="80.0" y="413.1" width="40.8" height="28.9" fill="#6a994e"/>
<rect x="122.8" y="422.9" width="40.8" height="19.1" fill="#6a994e"/>
<rect x="165.5" y="437.7" width="40.8" height="4.3" fill="#6a994e"/>
<rect x="208.2" y="181.9" width="40.8" height="260.1" fill="#6a994e"/>
<rect x="251.0" y="219.2" width="40.8" height="222.8" fill="#6a994e"/>
<rect x="293.8" y="299.6" width="40.8" height="142.4" fill="#6a994e"/>
<rect x="336.5" y="78.0" width="40.8" height="364.0" fill="#6a994e"/>
<rect x="379.2" y="161.6" width="40.8" height="280.4" fill="#6a994e"/>
<rect x="422.0" y="325.9" width="40.8" height="116.1" fill="#6a994e"/>
<rect x="464.8" y="262.2" width="40.8" height="179.8" fill="#6a994e"/>
<rect x="507.5" y="329.7" width="40.8" height="112.3" fill="#6a994e"/>
<rect x="550.2" y="406.4" width="40.8" height="35.6" fill="#6a994e"/>
<rect x="593.0" y="399.2" width="40.8" height="42.8" fill="#6a994e"/>
<rect x="635.8" y="423.4" width="40.8" height="18.6" fill="#6a994e"/>
<rect x="678.5" y="437.6" width="40.8" height="4.4" fill="#6a994e"/>
<rect x="721.2" y="438.1" width="40.8" height="3.9" fill="#6a994e"/>
<rect x="764.0" y="440.8" width="40.8" height="1.2" fill="#6a994e"/>
<rect x="806.8" y="441.8" width="40.8" height="0.2" fill="#6a994e"/>
<rect x="849.5" y="441.9" width="40.8" height="0.1" fill="#6a994e"/>
<rect x="892.2" y="441.8" width="40.8" height="0.2" fill="#6a994e"/>
<line x1="80.0" y1="442" x2="80.0" y2="447" stroke="#98a2b3"/>
<text x="80.0" y="466" text-anchor="middle" font-family="Arial" font-size="12" fill="#667085">0</text>
<line x1="293.8" y1="442" x2="293.8" y2="447" stroke="#98a2b3"/>
<text x="293.8" y="466" text-anchor="middle" font-family="Arial" font-size="12" fill="#667085">8</text>
<line x1="507.5" y1="442" x2="507.5" y2="447" stroke="#98a2b3"/>
<text x="507.5" y="466" text-anchor="middle" font-family="Arial" font-size="12" fill="#667085">16</text>
<line x1="721.2" y1="442" x2="721.2" y2="447" stroke="#98a2b3"/>
<text x="721.2" y="466" text-anchor="middle" font-family="Arial" font-size="12" fill="#667085">25</text>
<line x1="935.0" y1="442" x2="935.0" y2="447" stroke="#98a2b3"/>
<text x="935.0" y="466" text-anchor="middle" font-family="Arial" font-size="12" fill="#667085">33</text>
            </svg>
